ISO-10303-21;
HEADER;
FILE_DESCRIPTION (( 'STEP AP214' ),
    '1' );
FILE_NAME ('outlet pipe tube.STEP',
    '2025-11-07T08:03:29',
    ( '' ),
    ( '' ),
    'SwSTEP 2.0',
    'SolidWorks 2025',
    '' );
FILE_SCHEMA (( 'AUTOMOTIVE_DESIGN' ));
ENDSEC;

DATA;
#1 =( NAMED_UNIT ( * ) SI_UNIT ( $, .STERADIAN. ) SOLID_ANGLE_UNIT ( ) );
#2 = CARTESIAN_POINT ( 'NONE',  ( -6.217610711541479228E-13, 869.4809451124257293, 1841.226236246375720 ) ) ;
#3 = DIRECTION ( 'NONE',  ( 1.000000000000000000, 8.881784197001252323E-16, 0.000000000000000000 ) ) ;
#4 = CIRCLE ( 'NONE', #46, 15.25000000000000000 ) ;
#5 = CARTESIAN_POINT ( 'NONE',  ( 4.584059068293276572E-13, 2218.516110584422222, 79.99999999999977263 ) ) ;
#6 = DIRECTION ( 'NONE',  ( 0.000000000000000000, 0.000000000000000000, 1.000000000000000000 ) ) ;
#7 = CIRCLE ( 'NONE', #255, 2203.266110584422222 ) ;
#8 = DIRECTION ( 'NONE',  ( -8.006959385714380959E-16, -1.000000000000000000, 0.000000000000000000 ) ) ;
#9 = EDGE_CURVE ( 'NONE', #82, #12, #144, .T. ) ;
#10 = ORIENTED_EDGE ( 'NONE', *, *, #75, .F. ) ;
#11 = PRESENTATION_LAYER_ASSIGNMENT (  '', '', ( #321 ) ) ;
#12 = VERTEX_POINT ( 'NONE', #174 ) ;
#13 = CARTESIAN_POINT ( 'NONE',  ( 0.000000000000000000, 0.000000000000000000, 0.000000000000000000 ) ) ;
#14 = ORIENTED_EDGE ( 'NONE', *, *, #133, .F. ) ;
#15 = CARTESIAN_POINT ( 'NONE',  ( -6.142965112836776844E-13, 876.9299244992278091, 1831.501257783932033 ) ) ;
#16 = PRODUCT ( 'outlet pipe tube', 'outlet pipe tube', '', ( #88 ) ) ;
#17 = EDGE_LOOP ( 'NONE', ( #166, #147, #179, #134, #241 ) ) ;
#18 = MECHANICAL_DESIGN_GEOMETRIC_PRESENTATION_REPRESENTATION (  '', ( #321 ), #152 ) ;
#19 = CARTESIAN_POINT ( 'NONE',  ( 12.25000000000000000, 0.000000000000000000, 5.999418216059346887E-31 ) ) ;
#20 = ORIENTED_EDGE ( 'NONE', *, *, #47, .T. ) ;
#21 = ADVANCED_FACE ( 'NONE', ( #48 ), #154, .F. ) ;
#22 = ORIENTED_EDGE ( 'NONE', *, *, #83, .T. ) ;
#23 = CARTESIAN_POINT ( 'NONE',  ( -15.25000000000000000, 1.867586368699713770E-15, 0.000000000000000000 ) ) ;
#24 = CARTESIAN_POINT ( 'NONE',  ( -6.217610711541479228E-13, 869.4809451124257293, 1841.226236246375720 ) ) ;
#25 = CARTESIAN_POINT ( 'NONE',  ( 4.584059068293276572E-13, 2218.516110584422222, 79.99999999999977263 ) ) ;
#26 = CIRCLE ( 'NONE', #182, 15.25000000000000000 ) ;
#27 = EDGE_LOOP ( 'NONE', ( #307, #164, #217, #10, #204 ) ) ;
#28 = CARTESIAN_POINT ( 'NONE',  ( -6.217610711541479228E-13, 869.4809451124257293, 1841.226236246375720 ) ) ;
#29 = VERTEX_POINT ( 'NONE', #119 ) ;
#30 = EDGE_CURVE ( 'NONE', #12, #178, #308, .T. ) ;
#31 = DIRECTION ( 'NONE',  ( -1.000000000000000000, 8.006959385714381945E-16, 0.000000000000000000 ) ) ;
#32 = DIRECTION ( 'NONE',  ( -4.897484258007630659E-32, 0.000000000000000000, 1.000000000000000000 ) ) ;
#33 = EDGE_LOOP ( 'NONE', ( #53, #338, #45, #275, #203 ) ) ;
#34 = PRODUCT_DEFINITION_CONTEXT ( 'detailed design', #227, 'design' ) ;
#35 = DIRECTION ( 'NONE',  ( -0.000000000000000000, -0.000000000000000000, -1.000000000000000000 ) ) ;
#36 = AXIS2_PLACEMENT_3D ( 'NONE', #145, #44, #148 ) ;
#37 = FACE_OUTER_BOUND ( 'NONE', #342, .T. ) ;
#38 = CIRCLE ( 'NONE', #309, 15.25000000000000000 ) ;
#39 = AXIS2_PLACEMENT_3D ( 'NONE', #200, #112, #231 ) ;
#40 = ADVANCED_FACE ( 'NONE', ( #333 ), #263, .T. ) ;
#41 = DIRECTION ( 'NONE',  ( -0.000000000000000000, -0.000000000000000000, -1.000000000000000000 ) ) ;
#42 = CIRCLE ( 'NONE', #244, 12.25000000000000000 ) ;
#43 = FACE_OUTER_BOUND ( 'NONE', #92, .T. ) ;
#44 = DIRECTION ( 'NONE',  ( -0.000000000000000000, -0.000000000000000000, -1.000000000000000000 ) ) ;
#45 = ORIENTED_EDGE ( 'NONE', *, *, #30, .T. ) ;
#46 = AXIS2_PLACEMENT_3D ( 'NONE', #80, #323, #163 ) ;
#47 = EDGE_CURVE ( 'NONE', #248, #329, #298, .T. ) ;
#48 = FACE_OUTER_BOUND ( 'NONE', #232, .T. ) ;
#49 = LINE ( 'NONE', #185, #171 ) ;
#50 = VERTEX_POINT ( 'NONE', #288 ) ;
#51 = DIRECTION ( 'NONE',  ( -8.006959385714381945E-16, -1.000000000000000000, 0.000000000000000000 ) ) ;
#52 = DIRECTION ( 'NONE',  ( 1.000000000000000000, 0.000000000000000000, 0.000000000000000000 ) ) ;
#53 = ORIENTED_EDGE ( 'NONE', *, *, #209, .F. ) ;
#54 = AXIS2_PLACEMENT_3D ( 'NONE', #25, #188, #123 ) ;
#55 = DIRECTION ( 'NONE',  ( -4.897484258007630659E-32, 0.000000000000000000, 1.000000000000000000 ) ) ;
#56 = AXIS2_PLACEMENT_3D ( 'NONE', #141, #196, #304 ) ;
#57 = CARTESIAN_POINT ( 'NONE',  ( -12.25000000000000000, 1.500192328955507734E-15, -5.999418216059346887E-31 ) ) ;
#58 = EDGE_LOOP ( 'NONE', ( #73, #126, #223, #201, #103 ) ) ;
#59 = PRESENTATION_STYLE_ASSIGNMENT (( #131 ) ) ;
#60 = DIRECTION ( 'NONE',  ( -0.000000000000000000, -0.000000000000000000, -1.000000000000000000 ) ) ;
#61 = VERTEX_POINT ( 'NONE', #180 ) ;
#62 = ADVANCED_FACE ( 'NONE', ( #43 ), #74, .T. ) ;
#63 = AXIS2_PLACEMENT_3D ( 'NONE', #13, #97, #313 ) ;
#64 = CARTESIAN_POINT ( 'NONE',  ( 4.584059068293276572E-13, 2218.516110584422222, 79.99999999999977263 ) ) ;
#65 =( LENGTH_UNIT ( ) NAMED_UNIT ( * ) SI_UNIT ( .MILLI., .METRE. ) );
#66 = EDGE_CURVE ( 'NONE', #178, #229, #110, .T. ) ;
#67 = VECTOR ( 'NONE', #175, 1000.000000000000000 ) ;
#68 = CARTESIAN_POINT ( 'NONE',  ( 0.000000000000000000, 0.000000000000000000, 0.000000000000000000 ) ) ;
#69 = VERTEX_POINT ( 'NONE', #258 ) ;
#70 = DIRECTION ( 'NONE',  ( 1.000000000000000000, 0.000000000000000000, 0.000000000000000000 ) ) ;
#71 = VERTEX_POINT ( 'NONE', #15 ) ;
#72 = ORIENTED_EDGE ( 'NONE', *, *, #118, .T. ) ;
#73 = ORIENTED_EDGE ( 'NONE', *, *, #219, .F. ) ;
#74 = CYLINDRICAL_SURFACE ( 'NONE', #262, 15.25000000000000000 ) ;
#75 = EDGE_CURVE ( 'NONE', #50, #61, #38, .T. ) ;
#76 = DIRECTION ( 'NONE',  ( -4.897484258007630112E-32, 0.000000000000000000, 1.000000000000000000 ) ) ;
#77 = DIRECTION ( 'NONE',  ( -1.000000000000000000, 8.006959385714381945E-16, 0.000000000000000000 ) ) ;
#78 = DIRECTION ( 'NONE',  ( -4.897484258007630112E-32, 0.000000000000000000, 1.000000000000000000 ) ) ;
#79 = FACE_OUTER_BOUND ( 'NONE', #17, .T. ) ;
#80 = CARTESIAN_POINT ( 'NONE',  ( -3.917987406406104090E-30, 0.000000000000000000, 80.00000000000000000 ) ) ;
#81 = FACE_OUTER_BOUND ( 'NONE', #221, .T. ) ;
#82 = VERTEX_POINT ( 'NONE', #237 ) ;
#83 = EDGE_CURVE ( 'NONE', #69, #50, #207, .T. ) ;
#84 =( NAMED_UNIT ( * ) PLANE_ANGLE_UNIT ( ) SI_UNIT ( $, .RADIAN. ) );
#85 = CLOSED_SHELL ( 'NONE', ( #226, #195, #21, #40, #311, #95, #260, #327, #143, #62 ) ) ;
#86 = VECTOR ( 'NONE', #32, 1000.000000000000000 ) ;
#87 = DIRECTION ( 'NONE',  ( -0.000000000000000000, -0.000000000000000000, -1.000000000000000000 ) ) ;
#88 = PRODUCT_CONTEXT ( 'NONE', #280, 'mechanical' ) ;
#89 = VERTEX_POINT ( 'NONE', #96 ) ;
#90 = ORIENTED_EDGE ( 'NONE', *, *, #252, .T. ) ;
#91 = ORIENTED_EDGE ( 'NONE', *, *, #300, .T. ) ;
#92 = EDGE_LOOP ( 'NONE', ( #341, #72, #22, #190, #160 ) ) ;
#93 = AXIS2_PLACEMENT_3D ( 'NONE', #297, #137, #194 ) ;
#94 = DIRECTION ( 'NONE',  ( 1.000000000000000000, 0.000000000000000000, 0.000000000000000000 ) ) ;
#95 = ADVANCED_FACE ( 'NONE', ( #208 ), #218, .F. ) ;
#96 = CARTESIAN_POINT ( 'NONE',  ( -6.277254386956626998E-13, 862.0319657256235359, 1850.951214708819407 ) ) ;
#97 = DIRECTION ( 'NONE',  ( -0.000000000000000000, -0.000000000000000000, -1.000000000000000000 ) ) ;
#98 = EDGE_LOOP ( 'NONE', ( #234, #254 ) ) ;
#99 = CIRCLE ( 'NONE', #140, 12.25000000000000000 ) ;
#100 = DIRECTION ( 'NONE',  ( 1.000000000000000000, 0.000000000000000000, 0.000000000000000000 ) ) ;
#101 = CARTESIAN_POINT ( 'NONE',  ( 12.25000000000000000, 0.000000000000000000, 80.00000000000000000 ) ) ;
#102 = CARTESIAN_POINT ( 'NONE',  ( 0.000000000000000000, 0.000000000000000000, 0.000000000000000000 ) ) ;
#103 = ORIENTED_EDGE ( 'NONE', *, *, #300, .F. ) ;
#104 = DIRECTION ( 'NONE',  ( 6.356531230672217709E-16, 0.7938757928525556062, 0.6080799499430369348 ) ) ;
#105 = AXIS2_PLACEMENT_3D ( 'NONE', #266, #264, #51 ) ;
#106 = PRODUCT_DEFINITION_FORMATION_WITH_SPECIFIED_SOURCE ( 'ANY', '', #16, .NOT_KNOWN. ) ;
#107 = FILL_AREA_STYLE ('',( #216 ) ) ;
#108 = EDGE_CURVE ( 'NONE', #115, #122, #49, .T. ) ;
#109 = SURFACE_SIDE_STYLE ('',( #187 ) ) ;
#110 = CIRCLE ( 'NONE', #36, 12.25000000000000000 ) ;
#111 = CARTESIAN_POINT ( 'NONE',  ( 4.584059068293276572E-13, 2218.516110584422222, 79.99999999999977263 ) ) ;
#112 = DIRECTION ( 'NONE',  ( -1.000000000000000000, 8.006959385714381945E-16, 0.000000000000000000 ) ) ;
#113 = COLOUR_RGB ( '',0.7921568627450980005, 0.8196078431372548767, 0.9333333333333333481 ) ;
#114 = PRODUCT_DEFINITION ( 'UNKNOWN', '', #106, #34 ) ;
#115 = VERTEX_POINT ( 'NONE', #23 ) ;
#116 = ORIENTED_EDGE ( 'NONE', *, *, #322, .T. ) ;
#117 = EDGE_LOOP ( 'NONE', ( #151, #193 ) ) ;
#118 = EDGE_CURVE ( 'NONE', #115, #69, #205, .T. ) ;
#119 = CARTESIAN_POINT ( 'NONE',  ( -6.291861001344012372E-13, 860.2077258757942673, 1853.332842087377230 ) ) ;
#120 = AXIS2_PLACEMENT_3D ( 'NONE', #5, #301, #272 ) ;
#121 = DIRECTION ( 'NONE',  ( -4.897484258007630112E-32, 0.000000000000000000, 1.000000000000000000 ) ) ;
#122 = VERTEX_POINT ( 'NONE', #162 ) ;
#123 = DIRECTION ( 'NONE',  ( -8.006959385714381945E-16, -1.000000000000000000, 0.000000000000000000 ) ) ;
#124 = DIRECTION ( 'NONE',  ( 6.356531230672216723E-16, 0.7938757928525556062, 0.6080799499430369348 ) ) ;
#125 = CIRCLE ( 'NONE', #325, 12.25000000000000000 ) ;
#126 = ORIENTED_EDGE ( 'NONE', *, *, #173, .T. ) ;
#127 = DIRECTION ( 'NONE',  ( -8.006959385714382931E-16, -1.000000000000000000, 0.000000000000000000 ) ) ;
#128 = DIRECTION ( 'NONE',  ( 6.356531230672216723E-16, 0.7938757928525556062, 0.6080799499430369348 ) ) ;
#129 = ORIENTED_EDGE ( 'NONE', *, *, #30, .F. ) ;
#130 = DIRECTION ( 'NONE',  ( 1.000000000000000000, 0.000000000000000000, 0.000000000000000000 ) ) ;
#131 = SURFACE_STYLE_USAGE ( .BOTH. , #109 ) ;
#132 = ORIENTED_EDGE ( 'NONE', *, *, #322, .F. ) ;
#133 = EDGE_CURVE ( 'NONE', #71, #89, #334, .T. ) ;
#134 = ORIENTED_EDGE ( 'NONE', *, *, #165, .F. ) ;
#135 = AXIS2_PLACEMENT_3D ( 'NONE', #242, #343, #155 ) ;
#136 = AXIS2_PLACEMENT_3D ( 'NONE', #2, #104, #249 ) ;
#137 = DIRECTION ( 'NONE',  ( -1.000000000000000000, 8.006959385714381945E-16, 0.000000000000000000 ) ) ;
#138 = PLANE ( 'NONE',  #56 ) ;
#139 = APPLICATION_PROTOCOL_DEFINITION ( 'draft international standard', 'automotive_design', 1998, #227 ) ;
#140 = AXIS2_PLACEMENT_3D ( 'NONE', #251, #35, #3 ) ;
#141 = CARTESIAN_POINT ( 'NONE',  ( 0.000000000000000000, 0.000000000000000000, 0.000000000000000000 ) ) ;
#142 = APPLICATION_PROTOCOL_DEFINITION ( 'draft international standard', 'automotive_design', 1998, #280 ) ;
#143 = ADVANCED_FACE ( 'NONE', ( #271 ), #292, .T. ) ;
#144 = CIRCLE ( 'NONE', #63, 12.25000000000000000 ) ;
#145 = CARTESIAN_POINT ( 'NONE',  ( -3.917987406406104090E-30, 0.000000000000000000, 80.00000000000000000 ) ) ;
#146 = CIRCLE ( 'NONE', #283, 15.25000000000000000 ) ;
#147 = ORIENTED_EDGE ( 'NONE', *, *, #219, .T. ) ;
#148 = DIRECTION ( 'NONE',  ( 1.000000000000000000, 0.000000000000000000, 0.000000000000000000 ) ) ;
#149 = EDGE_CURVE ( 'NONE', #329, #71, #339, .T. ) ;
#150 = CARTESIAN_POINT ( 'NONE',  ( 0.000000000000000000, 0.000000000000000000, 0.000000000000000000 ) ) ;
#151 = ORIENTED_EDGE ( 'NONE', *, *, #285, .F. ) ;
#152 =( GEOMETRIC_REPRESENTATION_CONTEXT ( 3 ) GLOBAL_UNCERTAINTY_ASSIGNED_CONTEXT ( ( #281 ) ) GLOBAL_UNIT_ASSIGNED_CONTEXT ( ( #303, #84, #1 ) ) REPRESENTATION_CONTEXT ( 'NONE', 'WORKASPACE' ) );
#153 = CIRCLE ( 'NONE', #214, 15.25000000000000000 ) ;
#154 = CYLINDRICAL_SURFACE ( 'NONE', #176, 12.25000000000000000 ) ;
#155 = DIRECTION ( 'NONE',  ( 1.000000000000000000, 0.000000000000000000, 0.000000000000000000 ) ) ;
#156 = EDGE_CURVE ( 'NONE', #61, #122, #159, .T. ) ;
#157 = CARTESIAN_POINT ( 'NONE',  ( 4.602734931980273998E-13, 2218.516110584422222, 79.99999999999977263 ) ) ;
#158 = PLANE ( 'NONE',  #136 ) ;
#159 = CIRCLE ( 'NONE', #236, 15.25000000000000000 ) ;
#160 = ORIENTED_EDGE ( 'NONE', *, *, #224, .F. ) ;
#161 = AXIS2_PLACEMENT_3D ( 'NONE', #111, #324, #8 ) ;
#162 = CARTESIAN_POINT ( 'NONE',  ( -15.25000000000000000, 1.867586368699713770E-15, 80.00000000000000000 ) ) ;
#163 = DIRECTION ( 'NONE',  ( 1.000000000000000000, 0.000000000000000000, 0.000000000000000000 ) ) ;
#164 = ORIENTED_EDGE ( 'NONE', *, *, #108, .T. ) ;
#165 = EDGE_CURVE ( 'NONE', #61, #273, #7, .T. ) ;
#166 = ORIENTED_EDGE ( 'NONE', *, *, #224, .T. ) ;
#167 = CARTESIAN_POINT ( 'NONE',  ( -6.217610711541479228E-13, 869.4809451124257293, 1841.226236246375720 ) ) ;
#168 = AXIS2_PLACEMENT_3D ( 'NONE', #296, #78, #184 ) ;
#169 = AXIS2_PLACEMENT_3D ( 'NONE', #215, #316, #318 ) ;
#170 = CARTESIAN_POINT ( 'NONE',  ( -12.25000000000000000, 1.500192328955507734E-15, 80.00000000000000000 ) ) ;
#171 = VECTOR ( 'NONE', #55, 1000.000000000000000 ) ;
#172 = AXIS2_PLACEMENT_3D ( 'NONE', #189, #87, #225 ) ;
#173 = EDGE_CURVE ( 'NONE', #290, #50, #181, .T. ) ;
#174 = CARTESIAN_POINT ( 'NONE',  ( 12.25000000000000000, 0.000000000000000000, 0.000000000000000000 ) ) ;
#175 = DIRECTION ( 'NONE',  ( -4.897484258007630659E-32, 0.000000000000000000, 1.000000000000000000 ) ) ;
#176 = AXIS2_PLACEMENT_3D ( 'NONE', #239, #289, #233 ) ;
#177 = TOROIDAL_SURFACE ( 'NONE', #39, 2218.516110584422222, 12.25000000000000000 ) ;
#178 = VERTEX_POINT ( 'NONE', #101 ) ;
#179 = ORIENTED_EDGE ( 'NONE', *, *, #276, .F. ) ;
#180 = CARTESIAN_POINT ( 'NONE',  ( -9.581705944721023054E-13, 15.25000000000000000, 80.00000000000000000 ) ) ;
#181 = CIRCLE ( 'NONE', #169, 15.25000000000000000 ) ;
#182 = AXIS2_PLACEMENT_3D ( 'NONE', #102, #243, #222 ) ;
#183 = PRODUCT_RELATED_PRODUCT_CATEGORY ( 'part', '', ( #16 ) ) ;
#184 = DIRECTION ( 'NONE',  ( 1.000000000000000000, 0.000000000000000000, 4.897484258007630112E-32 ) ) ;
#185 = CARTESIAN_POINT ( 'NONE',  ( -15.25000000000000000, 1.867586368699713770E-15, -7.468663493461635921E-31 ) ) ;
#186 = UNCERTAINTY_MEASURE_WITH_UNIT (LENGTH_MEASURE( 1.000000000000000082E-05 ), #65, 'distance_accuracy_value', 'NONE');
#187 = SURFACE_STYLE_FILL_AREA ( #107 ) ;
#188 = DIRECTION ( 'NONE',  ( -1.000000000000000000, 8.006959385714381945E-16, 0.000000000000000000 ) ) ;
#189 = CARTESIAN_POINT ( 'NONE',  ( -3.917987406406104090E-30, 0.000000000000000000, 80.00000000000000000 ) ) ;
#190 = ORIENTED_EDGE ( 'NONE', *, *, #173, .F. ) ;
#191 = CARTESIAN_POINT ( 'NONE',  ( -1.327759457818422772E-12, -12.24999999999993605, 80.00000000000000000 ) ) ;
#192 = DIRECTION ( 'NONE',  ( -8.006959385714380959E-16, -1.000000000000000000, 0.000000000000000000 ) ) ;
#193 = ORIENTED_EDGE ( 'NONE', *, *, #118, .F. ) ;
#194 = DIRECTION ( 'NONE',  ( -8.006959385714381945E-16, -1.000000000000000000, 0.000000000000000000 ) ) ;
#195 = ADVANCED_FACE ( 'NONE', ( #79 ), #213, .T. ) ;
#196 = DIRECTION ( 'NONE',  ( 0.000000000000000000, 0.000000000000000000, 1.000000000000000000 ) ) ;
#197 = FACE_OUTER_BOUND ( 'NONE', #117, .T. ) ;
#198 =( NAMED_UNIT ( * ) SI_UNIT ( $, .STERADIAN. ) SOLID_ANGLE_UNIT ( ) );
#199 = EDGE_CURVE ( 'NONE', #229, #248, #99, .T. ) ;
#200 = CARTESIAN_POINT ( 'NONE',  ( 4.584059068293276572E-13, 2218.516110584422222, 79.99999999999977263 ) ) ;
#201 = ORIENTED_EDGE ( 'NONE', *, *, #165, .T. ) ;
#202 = ORIENTED_EDGE ( 'NONE', *, *, #66, .F. ) ;
#203 = ORIENTED_EDGE ( 'NONE', *, *, #47, .F. ) ;
#204 = ORIENTED_EDGE ( 'NONE', *, *, #83, .F. ) ;
#205 = CIRCLE ( 'NONE', #135, 15.25000000000000000 ) ;
#206 = CIRCLE ( 'NONE', #161, 2230.766110584422222 ) ;
#207 = LINE ( 'NONE', #210, #278 ) ;
#208 = FACE_OUTER_BOUND ( 'NONE', #33, .T. ) ;
#209 = EDGE_CURVE ( 'NONE', #82, #248, #317, .T. ) ;
#210 = CARTESIAN_POINT ( 'NONE',  ( 15.25000000000000000, 0.000000000000000000, 7.468663493461635921E-31 ) ) ;
#211 = ADVANCED_BREP_SHAPE_REPRESENTATION ( 'outlet pipe tube', ( #220, #326 ), #279 ) ;
#212 = ORIENTED_EDGE ( 'NONE', *, *, #238, .T. ) ;
#213 = TOROIDAL_SURFACE ( 'NONE', #93, 2218.516110584422222, 15.25000000000000000 ) ;
#214 = AXIS2_PLACEMENT_3D ( 'NONE', #28, #128, #246 ) ;
#215 = CARTESIAN_POINT ( 'NONE',  ( -3.917987406406104090E-30, 0.000000000000000000, 80.00000000000000000 ) ) ;
#216 = FILL_AREA_STYLE_COLOUR ( '', #113 ) ;
#217 = ORIENTED_EDGE ( 'NONE', *, *, #156, .F. ) ;
#218 = CYLINDRICAL_SURFACE ( 'NONE', #168, 12.25000000000000000 ) ;
#219 = EDGE_CURVE ( 'NONE', #290, #29, #282, .T. ) ;
#220 = MANIFOLD_SOLID_BREP ( 'Sweep1', #85 ) ;
#221 = EDGE_LOOP ( 'NONE', ( #314, #116, #14, #240, #302 ) ) ;
#222 = DIRECTION ( 'NONE',  ( 1.000000000000000000, 0.000000000000000000, 0.000000000000000000 ) ) ;
#223 = ORIENTED_EDGE ( 'NONE', *, *, #75, .T. ) ;
#224 = EDGE_CURVE ( 'NONE', #122, #290, #4, .T. ) ;
#225 = DIRECTION ( 'NONE',  ( 1.000000000000000000, 8.881784197001252323E-16, 0.000000000000000000 ) ) ;
#226 = ADVANCED_FACE ( 'NONE', ( #81 ), #250, .F. ) ;
#227 = APPLICATION_CONTEXT ( 'automotive_design' ) ;
#228 =( NAMED_UNIT ( * ) PLANE_ANGLE_UNIT ( ) SI_UNIT ( $, .RADIAN. ) );
#229 = VERTEX_POINT ( 'NONE', #191 ) ;
#230 = AXIS2_PLACEMENT_3D ( 'NONE', #337, #76, #284 ) ;
#231 = DIRECTION ( 'NONE',  ( -8.006959385714380959E-16, -1.000000000000000000, 0.000000000000000000 ) ) ;
#232 = EDGE_LOOP ( 'NONE', ( #212, #315, #331, #202, #129 ) ) ;
#233 = DIRECTION ( 'NONE',  ( 1.000000000000000000, 0.000000000000000000, 4.897484258007630112E-32 ) ) ;
#234 = ORIENTED_EDGE ( 'NONE', *, *, #238, .F. ) ;
#235 = CARTESIAN_POINT ( 'NONE',  ( -3.917987406406104090E-30, 0.000000000000000000, 80.00000000000000000 ) ) ;
#236 = AXIS2_PLACEMENT_3D ( 'NONE', #340, #294, #100 ) ;
#237 = CARTESIAN_POINT ( 'NONE',  ( -12.25000000000000000, 1.500192328955507734E-15, 0.000000000000000000 ) ) ;
#238 = EDGE_CURVE ( 'NONE', #12, #82, #42, .T. ) ;
#239 = CARTESIAN_POINT ( 'NONE',  ( 0.000000000000000000, 0.000000000000000000, 0.000000000000000000 ) ) ;
#240 = ORIENTED_EDGE ( 'NONE', *, *, #149, .F. ) ;
#241 = ORIENTED_EDGE ( 'NONE', *, *, #156, .T. ) ;
#242 = CARTESIAN_POINT ( 'NONE',  ( 0.000000000000000000, 0.000000000000000000, 0.000000000000000000 ) ) ;
#243 = DIRECTION ( 'NONE',  ( 0.000000000000000000, 0.000000000000000000, 1.000000000000000000 ) ) ;
#244 = AXIS2_PLACEMENT_3D ( 'NONE', #150, #60, #52 ) ;
#245 = CARTESIAN_POINT ( 'NONE',  ( -6.217610711541479228E-13, 869.4809451124257293, 1841.226236246375720 ) ) ;
#246 = DIRECTION ( 'NONE',  ( 1.000000000000000000, 0.000000000000000000, 0.000000000000000000 ) ) ;
#247 = FACE_OUTER_BOUND ( 'NONE', #270, .T. ) ;
#248 = VERTEX_POINT ( 'NONE', #170 ) ;
#249 = DIRECTION ( 'NONE',  ( 1.000000000000000000, -3.138087923253252767E-16, -6.356531230672216723E-16 ) ) ;
#250 = TOROIDAL_SURFACE ( 'NONE', #286, 2218.516110584422222, 12.25000000000000000 ) ;
#251 = CARTESIAN_POINT ( 'NONE',  ( -3.917987406406104090E-30, 0.000000000000000000, 80.00000000000000000 ) ) ;
#252 = EDGE_CURVE ( 'NONE', #89, #71, #125, .T. ) ;
#253 = CARTESIAN_POINT ( 'NONE',  ( -9.604693631390776828E-13, 12.25000000000000178, 80.00000000000000000 ) ) ;
#254 = ORIENTED_EDGE ( 'NONE', *, *, #9, .F. ) ;
#255 = AXIS2_PLACEMENT_3D ( 'NONE', #157, #77, #127 ) ;
#256 = ORIENTED_EDGE ( 'NONE', *, *, #199, .T. ) ;
#257 = DIRECTION ( 'NONE',  ( 1.000000000000000000, 0.000000000000000000, 4.897484258007630112E-32 ) ) ;
#258 = CARTESIAN_POINT ( 'NONE',  ( 15.25000000000000000, 0.000000000000000000, 0.000000000000000000 ) ) ;
#259 = ORIENTED_EDGE ( 'NONE', *, *, #149, .T. ) ;
#260 = ADVANCED_FACE ( 'NONE', ( #299, #247 ), #158, .T. ) ;
#261 = ORIENTED_EDGE ( 'NONE', *, *, #276, .T. ) ;
#262 = AXIS2_PLACEMENT_3D ( 'NONE', #335, #121, #257 ) ;
#263 = CYLINDRICAL_SURFACE ( 'NONE', #230, 15.25000000000000000 ) ;
#264 = DIRECTION ( 'NONE',  ( -1.000000000000000000, 8.006959385714381945E-16, 0.000000000000000000 ) ) ;
#265 = ORIENTED_EDGE ( 'NONE', *, *, #252, .F. ) ;
#266 = CARTESIAN_POINT ( 'NONE',  ( 4.599060991582832196E-13, 2218.516110584422222, 79.99999999999977263 ) ) ;
#267 = DIRECTION ( 'NONE',  ( 1.000000000000000000, 0.000000000000000000, 0.000000000000000000 ) ) ;
#268 = AXIS2_PLACEMENT_3D ( 'NONE', #235, #41, #312 ) ;
#269 = CIRCLE ( 'NONE', #172, 12.25000000000000000 ) ;
#270 = EDGE_LOOP ( 'NONE', ( #261, #91 ) ) ;
#271 = FACE_OUTER_BOUND ( 'NONE', #58, .T. ) ;
#272 = DIRECTION ( 'NONE',  ( -8.006959385714381945E-16, -1.000000000000000000, 0.000000000000000000 ) ) ;
#273 = VERTEX_POINT ( 'NONE', #277 ) ;
#274 = DIRECTION ( 'NONE',  ( -6.356531230672216723E-16, -0.7938757928525556062, -0.6080799499430369348 ) ) ;
#275 = ORIENTED_EDGE ( 'NONE', *, *, #305, .F. ) ;
#276 = EDGE_CURVE ( 'NONE', #273, #29, #146, .T. ) ;
#277 = CARTESIAN_POINT ( 'NONE',  ( -6.124684558051949669E-13, 878.7541643490570777, 1829.119630405373982 ) ) ;
#278 = VECTOR ( 'NONE', #336, 1000.000000000000000 ) ;
#279 =( GEOMETRIC_REPRESENTATION_CONTEXT ( 3 ) GLOBAL_UNCERTAINTY_ASSIGNED_CONTEXT ( ( #186 ) ) GLOBAL_UNIT_ASSIGNED_CONTEXT ( ( #65, #228, #198 ) ) REPRESENTATION_CONTEXT ( 'NONE', 'WORKASPACE' ) );
#280 = APPLICATION_CONTEXT ( 'automotive_design' ) ;
#281 = UNCERTAINTY_MEASURE_WITH_UNIT (LENGTH_MEASURE( 1.000000000000000082E-05 ), #303, 'distance_accuracy_value', 'NONE');
#282 = CIRCLE ( 'NONE', #120, 2233.766110584422222 ) ;
#283 = AXIS2_PLACEMENT_3D ( 'NONE', #24, #124, #267 ) ;
#284 = DIRECTION ( 'NONE',  ( 1.000000000000000000, 0.000000000000000000, 4.897484258007630112E-32 ) ) ;
#285 = EDGE_CURVE ( 'NONE', #69, #115, #26, .T. ) ;
#286 = AXIS2_PLACEMENT_3D ( 'NONE', #64, #31, #192 ) ;
#287 = EDGE_LOOP ( 'NONE', ( #332, #90 ) ) ;
#288 = CARTESIAN_POINT ( 'NONE',  ( 15.25000000000000000, 0.000000000000000000, 80.00000000000000000 ) ) ;
#289 = DIRECTION ( 'NONE',  ( -4.897484258007630112E-32, 0.000000000000000000, 1.000000000000000000 ) ) ;
#290 = VERTEX_POINT ( 'NONE', #319 ) ;
#291 = DIRECTION ( 'NONE',  ( 0.000000000000000000, 0.000000000000000000, 1.000000000000000000 ) ) ;
#292 = TOROIDAL_SURFACE ( 'NONE', #54, 2218.516110584422222, 15.25000000000000000 ) ;
#293 = DIRECTION ( 'NONE',  ( -6.356531230672216723E-16, -0.7938757928525556062, -0.6080799499430369348 ) ) ;
#294 = DIRECTION ( 'NONE',  ( 0.000000000000000000, 0.000000000000000000, 1.000000000000000000 ) ) ;
#295 = PRODUCT_DEFINITION_SHAPE ( 'NONE', 'NONE',  #114 ) ;
#296 = CARTESIAN_POINT ( 'NONE',  ( 0.000000000000000000, 0.000000000000000000, 0.000000000000000000 ) ) ;
#297 = CARTESIAN_POINT ( 'NONE',  ( 4.584059068293276572E-13, 2218.516110584422222, 79.99999999999977263 ) ) ;
#298 = CIRCLE ( 'NONE', #268, 12.25000000000000000 ) ;
#299 = FACE_BOUND ( 'NONE', #287, .T. ) ;
#300 = EDGE_CURVE ( 'NONE', #29, #273, #153, .T. ) ;
#301 = DIRECTION ( 'NONE',  ( -1.000000000000000000, 8.006959385714381945E-16, 0.000000000000000000 ) ) ;
#302 = ORIENTED_EDGE ( 'NONE', *, *, #305, .T. ) ;
#303 =( LENGTH_UNIT ( ) NAMED_UNIT ( * ) SI_UNIT ( .MILLI., .METRE. ) );
#304 = DIRECTION ( 'NONE',  ( 1.000000000000000000, 0.000000000000000000, -0.000000000000000000 ) ) ;
#305 = EDGE_CURVE ( 'NONE', #329, #178, #269, .T. ) ;
#306 = SHAPE_DEFINITION_REPRESENTATION ( #295, #211 ) ;
#307 = ORIENTED_EDGE ( 'NONE', *, *, #285, .T. ) ;
#308 = LINE ( 'NONE', #19, #67 ) ;
#309 = AXIS2_PLACEMENT_3D ( 'NONE', #310, #291, #94 ) ;
#310 = CARTESIAN_POINT ( 'NONE',  ( -3.917987406406104090E-30, 0.000000000000000000, 80.00000000000000000 ) ) ;
#311 = ADVANCED_FACE ( 'NONE', ( #37 ), #177, .F. ) ;
#312 = DIRECTION ( 'NONE',  ( 1.000000000000000000, 0.000000000000000000, 0.000000000000000000 ) ) ;
#313 = DIRECTION ( 'NONE',  ( 1.000000000000000000, 0.000000000000000000, 0.000000000000000000 ) ) ;
#314 = ORIENTED_EDGE ( 'NONE', *, *, #66, .T. ) ;
#315 = ORIENTED_EDGE ( 'NONE', *, *, #209, .T. ) ;
#316 = DIRECTION ( 'NONE',  ( 0.000000000000000000, 0.000000000000000000, 1.000000000000000000 ) ) ;
#317 = LINE ( 'NONE', #57, #86 ) ;
#318 = DIRECTION ( 'NONE',  ( 1.000000000000000000, 0.000000000000000000, 0.000000000000000000 ) ) ;
#319 = CARTESIAN_POINT ( 'NONE',  ( -1.330161545634137238E-12, -15.24999999999999289, 80.00000000000000000 ) ) ;
#320 = DIRECTION ( 'NONE',  ( 1.000000000000000000, 0.000000000000000000, 0.000000000000000000 ) ) ;
#321 = STYLED_ITEM ( 'NONE', ( #59 ), #220 ) ;
#322 = EDGE_CURVE ( 'NONE', #229, #89, #206, .T. ) ;
#323 = DIRECTION ( 'NONE',  ( 0.000000000000000000, 0.000000000000000000, 1.000000000000000000 ) ) ;
#324 = DIRECTION ( 'NONE',  ( -1.000000000000000000, 8.006959385714381945E-16, 0.000000000000000000 ) ) ;
#325 = AXIS2_PLACEMENT_3D ( 'NONE', #167, #274, #320 ) ;
#326 = AXIS2_PLACEMENT_3D ( 'NONE', #68, #6, #70 ) ;
#327 = ADVANCED_FACE ( 'NONE', ( #330, #197 ), #138, .F. ) ;
#328 = AXIS2_PLACEMENT_3D ( 'NONE', #245, #293, #130 ) ;
#329 = VERTEX_POINT ( 'NONE', #253 ) ;
#330 = FACE_BOUND ( 'NONE', #98, .T. ) ;
#331 = ORIENTED_EDGE ( 'NONE', *, *, #199, .F. ) ;
#332 = ORIENTED_EDGE ( 'NONE', *, *, #133, .T. ) ;
#333 = FACE_OUTER_BOUND ( 'NONE', #27, .T. ) ;
#334 = CIRCLE ( 'NONE', #328, 12.25000000000000000 ) ;
#335 = CARTESIAN_POINT ( 'NONE',  ( 0.000000000000000000, 0.000000000000000000, 0.000000000000000000 ) ) ;
#336 = DIRECTION ( 'NONE',  ( -4.897484258007630659E-32, 0.000000000000000000, 1.000000000000000000 ) ) ;
#337 = CARTESIAN_POINT ( 'NONE',  ( 0.000000000000000000, 0.000000000000000000, 0.000000000000000000 ) ) ;
#338 = ORIENTED_EDGE ( 'NONE', *, *, #9, .T. ) ;
#339 = CIRCLE ( 'NONE', #105, 2206.266110584422222 ) ;
#340 = CARTESIAN_POINT ( 'NONE',  ( -3.917987406406104090E-30, 0.000000000000000000, 80.00000000000000000 ) ) ;
#341 = ORIENTED_EDGE ( 'NONE', *, *, #108, .F. ) ;
#342 = EDGE_LOOP ( 'NONE', ( #132, #256, #20, #259, #265 ) ) ;
#343 = DIRECTION ( 'NONE',  ( 0.000000000000000000, 0.000000000000000000, 1.000000000000000000 ) ) ;
ENDSEC;
END-ISO-10303-21;
